# xmcd
#
# Track frame offsets: 
#        150
#        12531
#        25231
#        38501
#        55601
#        67881
#        92090
#        105993
#        119785
#        134998
#        156143
#        168205
#
# Disc length: 2424 seconds
#
# Revision: 2
# Processed by: cddbd v1.5.2PL0 Copyright (c) Steve Scherf et al.
# Submitted via: ExactAudioCopy v0.95b4
#
DISCID=9909760c
DTITLE=Big Joe Louis and His Blues Kings - The stars in the sky
DYEAR=2002
DGENRE=Blues
TTITLE0=I'm So Glad
TTITLE1=I Need You Pretty Naby For My Own
TTITLE2=She's Yours, She's Mine
TTITLE3=Baby Child
TTITLE4=You Lied To Me, Baby
TTITLE5=Real Life
TTITLE6=Boogie Twist
TTITLE7=Trouble At Your Door
TTITLE8=Married Woman
TTITLE9=Why Don't You Do Right?
TTITLE10=The Stars In The Sky
TTITLE11=The Music Woman I Love
EXTD=
EXTT0=
EXTT1=
EXTT2=
EXTT3=
EXTT4=
EXTT5=
EXTT6=
EXTT7=
EXTT8=
EXTT9=
EXTT10=
EXTT11=
PLAYORDER=
